# xmcd CD database file
#
# Track frame offsets:
#	150
#	16505
#	33160
#	44637
#	57320
#	72552
#	87782
#	100090
#	116145
#	132492
#	146397
#	163957
#	176560
#	191715
#	206795
#	222475
#	235905
#	248805
#	264410
#	274617
#	289320
#	305375
#
# Disc length: 4378 seconds
#
# Revision: 0
# Processed by: cddbd v1.5.2PL0 Copyright (c) Steve Scherf et al.
# Submitted via: CDex 1.70beta2
#
DISCID=4f111816
DTITLE=ChartBreakers - ChartBreakers CGC-543
DYEAR=1900
DGENRE=Country
TTITLE0=Lee Greenwood - ItTurns Me Inside Out
TTITLE1=Reba McEntire - Love Will Find Its Way To You
TTITLE2=Mel McDaniel - Stand Up
TTITLE3=Hank Williams Jr - This Ain't Dallas
TTITLE4=Steve Wariner - Where Did I Go Wrong?
TTITLE5=George Strait - You're Something Special To Me
TTITLE6=Moe Bandy - It's A Cheating Situation
TTITLE7=Crystal Gayle - It's Like We Never Said Goodbye
TTITLE8=Kenny Rogers - Love Will Turn You Around
TTITLE9=Ricky Van Shelton - Statue OF A Fool
TTITLE10=Emmylou Harris - Together Again
TTITLE11=Barbara Mandrell - Wish You Were Here (Live)
TTITLE12=Marie Osmond and Paul Davis - You're Still New To Me
TTITLE13=Bellamy Brothers - Lovers Live Longer
TTITLE14=Ricky Skaggs - Lovin' Only Me
TTITLE15=Don Williams - Stay Young
TTITLE16=Crystal Gayle - Turning Away
TTITLE17=Merle Haggard - Twinkle, Twinkle Lucky Star
TTITLE18=Crystal Gayle - Wrong Road Again
TTITLE19=Waylon Jennings and Willie Nelson - Luckenbach, Texas (Back To The Basics Of Love)
TTITLE20=Forester Sisters - Lyin' In His Arms Again
TTITLE21=Ronnie Milsap - Still Losing You
EXTD=YEAR: 1900
EXTT0=
EXTT1=
EXTT2=
EXTT3=
EXTT4=
EXTT5=
EXTT6=
EXTT7=
EXTT8=
EXTT9=
EXTT10=
EXTT11=
EXTT12=
EXTT13=
EXTT14=
EXTT15=
EXTT16=
EXTT17=
EXTT18=
EXTT19=
EXTT20=
EXTT21=
PLAYORDER=
